<?xml version="1.0" encoding="utf-8"?>
<!-- Generator: Adobe Illustrator 22.1.0, SVG Export Plug-In . SVG Version: 6.00 Build 0)  -->
<svg version="1.1" id="Layer_1" xmlns="http://www.w3.org/2000/svg" xmlns:xlink="http://www.w3.org/1999/xlink" x="0px" y="0px"
	 viewBox="0 0 240 80" style="enable-background:new 0 0 240 80;" xml:space="preserve">
<style type="text/css">
	.st0{fill:#FF9C42;}
	.st1{fill:#FFFFFF;}
</style>
<g>
	<path class="st0" d="M72.7,18.2H55.1v44.4c0,2.6-0.7,4.5-2.2,5.7c-1.5,1.2-3.4,1.9-5.8,1.9c-2.4,0-4.3-0.6-5.9-1.9
		c-1.5-1.3-2.3-3.1-2.3-5.7V18.2H21.3c-2.8,0-4.8-0.5-6.2-1.4c-1.3-0.9-2-2.2-2-3.7c0-1.6,0.7-2.8,2.1-3.8C16.6,8.5,18.7,8,21.3,8
		h51.4c2.8,0,4.9,0.5,6.2,1.4c1.4,0.9,2,2.2,2,3.7c0,1.5-0.7,2.8-2.1,3.7C77.5,17.8,75.5,18.2,72.7,18.2z"/>
	<path class="st1" d="M73.3,58.1h-9.4c0,1.1,0.2,2.1,0.7,2.9s1,1.5,1.7,1.9s1.5,0.6,2.3,0.6c0.6,0,1.1-0.1,1.6-0.2s0.9-0.3,1.4-0.6
		s0.9-0.6,1.2-0.9s0.9-0.8,1.5-1.3c0.2-0.2,0.6-0.3,1.1-0.3c0.5,0,0.9,0.1,1.2,0.4s0.5,0.7,0.5,1.1c0,0.4-0.2,0.9-0.5,1.5
		s-0.9,1.1-1.5,1.7s-1.5,1-2.6,1.3s-2.2,0.5-3.6,0.5c-3.1,0-5.5-0.9-7.2-2.6S59,59.9,59,56.9c0-1.4,0.2-2.7,0.6-3.9s1-2.3,1.8-3.1
		s1.8-1.5,3-2s2.5-0.7,3.9-0.7c1.9,0,3.5,0.4,4.8,1.2s2.3,1.8,3,3.1s1,2.5,1,3.8c0,1.2-0.3,2-1,2.3S74.6,58.1,73.3,58.1z M63.9,55.4
		h8.7c-0.1-1.6-0.6-2.9-1.3-3.7s-1.8-1.2-3-1.2c-1.2,0-2.2,0.4-2.9,1.2S64.1,53.7,63.9,55.4z"/>
	<path class="st1" d="M98.5,60.7c0,0.6-0.2,1.2-0.5,1.9s-0.9,1.3-1.6,1.9s-1.7,1.1-2.8,1.5s-2.4,0.6-3.8,0.6c-3,0-5.3-0.9-6.9-2.6
		s-2.5-4-2.5-7c0-2,0.4-3.7,1.1-5.2s1.9-2.7,3.3-3.5s3.2-1.2,5.2-1.2c1.2,0,2.4,0.2,3.4,0.5s1.9,0.8,2.6,1.4s1.3,1.2,1.7,1.8
		s0.6,1.3,0.6,1.8c0,0.6-0.2,1.1-0.6,1.5s-0.9,0.6-1.6,0.6c-0.4,0-0.7-0.1-1-0.3s-0.6-0.5-0.9-1c-0.6-0.9-1.2-1.6-1.8-2
		s-1.5-0.7-2.4-0.7c-1.4,0-2.6,0.6-3.4,1.7s-1.3,2.6-1.3,4.5c0,0.9,0.1,1.7,0.3,2.5s0.5,1.4,1,1.9s0.9,0.9,1.5,1.2s1.3,0.4,2,0.4
		c1,0,1.8-0.2,2.5-0.7s1.3-1.1,1.8-2c0.3-0.5,0.6-1,0.9-1.3s0.8-0.5,1.2-0.5c0.6,0,1.1,0.2,1.5,0.7S98.5,60.2,98.5,60.7z"/>
	<path class="st1" d="M106.5,42.9v7.1c0.6-0.7,1.2-1.3,1.8-1.7s1.2-0.7,1.9-0.9s1.5-0.3,2.3-0.3c1.2,0,2.3,0.3,3.2,0.8
		s1.7,1.3,2.2,2.3c0.3,0.6,0.6,1.2,0.7,1.9s0.2,1.5,0.2,2.5v9.2c0,1-0.2,1.7-0.7,2.2s-1,0.7-1.7,0.7c-1.6,0-2.4-1-2.4-2.9v-8.1
		c0-1.5-0.2-2.7-0.7-3.5s-1.3-1.2-2.6-1.2c-0.9,0-1.6,0.2-2.3,0.7s-1.2,1.2-1.5,2c-0.3,0.7-0.4,2-0.4,3.8v6.3c0,0.9-0.2,1.7-0.6,2.2
		s-1,0.7-1.8,0.7c-1.6,0-2.4-1-2.4-2.9V42.9c0-1,0.2-1.7,0.6-2.2s1-0.7,1.7-0.7c0.8,0,1.4,0.2,1.8,0.7S106.5,42,106.5,42.9z"/>
	<path class="st0" d="M119.3,29.6h2.2v-3c0-3.1,0.4-5.6,1.1-7.4c0.7-1.8,2-3.2,3.8-4s4.2-1.3,7.3-1.3c5.5,0,8.2,1.4,8.2,4.2
		c0,0.9-0.3,1.7-0.9,2.4s-1.3,1-2,1c-0.4,0-1-0.1-1.9-0.2c-0.9-0.1-1.7-0.2-2.3-0.2c-1.7,0-2.8,0.5-3.3,1.6
		c-0.5,1.1-0.7,2.6-0.7,4.5v2.4h2.3c3.6,0,5.4,1.1,5.4,3.4c0,1.6-0.5,2.6-1.4,3.1s-2.3,0.7-3.9,0.7h-2.3v26.2c0,2-0.4,3.4-1.3,4.5
		c-0.9,1-2,1.5-3.4,1.5c-1.3,0-2.4-0.5-3.3-1.5c-0.9-1-1.3-2.5-1.3-4.5V36.7h-2.6c-1.4,0-2.5-0.3-3.2-1c-0.8-0.7-1.1-1.5-1.1-2.6
		C114.5,30.8,116.1,29.6,119.3,29.6z"/>
	<path class="st1" d="M137,44.9c-0.7,0-1.2-0.2-1.7-0.6s-0.7-1-0.7-1.7c0-0.7,0.2-1.2,0.7-1.7s1.1-0.7,1.7-0.7
		c0.6,0,1.2,0.2,1.7,0.6s0.7,1,0.7,1.7c0,0.7-0.2,1.3-0.7,1.7S137.6,44.9,137,44.9z M139.3,49.9v13.9c0,1-0.2,1.7-0.7,2.2
		s-1,0.7-1.7,0.7s-1.3-0.3-1.7-0.8s-0.7-1.2-0.7-2.2V50c0-0.9,0.2-1.7,0.7-2.1s1-0.7,1.7-0.7s1.3,0.2,1.7,0.7S139.3,49,139.3,49.9z"
		/>
	<path class="st1" d="M148.6,49.8v0.6c0.8-1.1,1.8-1.9,2.8-2.5s2.2-0.8,3.5-0.8c1.3,0,2.4,0.3,3.4,0.8s1.7,1.3,2.2,2.3
		c0.3,0.6,0.5,1.2,0.6,1.9s0.1,1.5,0.1,2.6v8.9c0,1-0.2,1.7-0.7,2.2s-1,0.7-1.7,0.7c-0.7,0-1.3-0.3-1.7-0.8s-0.7-1.2-0.7-2.2v-8
		c0-1.6-0.2-2.8-0.7-3.6s-1.3-1.3-2.6-1.3c-0.9,0-1.6,0.3-2.3,0.8s-1.2,1.2-1.5,2.1c-0.2,0.7-0.4,2.1-0.4,4v6c0,1-0.2,1.7-0.7,2.2
		s-1,0.7-1.7,0.7c-0.7,0-1.3-0.3-1.7-0.8s-0.7-1.2-0.7-2.2V49.9c0-0.9,0.2-1.6,0.6-2s0.9-0.7,1.6-0.7c0.4,0,0.8,0.1,1.1,0.3
		s0.6,0.5,0.8,0.9S148.6,49.2,148.6,49.8z"/>
	<path class="st1" d="M168.5,44.9c-0.7,0-1.2-0.2-1.7-0.6s-0.7-1-0.7-1.7c0-0.7,0.2-1.2,0.7-1.7s1.1-0.7,1.7-0.7
		c0.6,0,1.2,0.2,1.7,0.6s0.7,1,0.7,1.7c0,0.7-0.2,1.3-0.7,1.7S169.1,44.9,168.5,44.9z M170.8,49.9v13.9c0,1-0.2,1.7-0.7,2.2
		s-1,0.7-1.7,0.7s-1.3-0.3-1.7-0.8s-0.7-1.2-0.7-2.2V50c0-0.9,0.2-1.7,0.7-2.1s1-0.7,1.7-0.7s1.3,0.2,1.7,0.7S170.8,49,170.8,49.9z"
		/>
	<path class="st1" d="M176,47.6h0.5v-2.9c0-0.8,0-1.4,0.1-1.8s0.2-0.8,0.3-1.1c0.2-0.3,0.5-0.6,0.8-0.8s0.7-0.3,1.2-0.3
		c0.6,0,1.2,0.2,1.7,0.7c0.3,0.3,0.5,0.7,0.6,1.1s0.1,1.1,0.1,1.9v3.3h1.8c0.7,0,1.2,0.2,1.6,0.5s0.5,0.7,0.5,1.2
		c0,0.6-0.3,1.1-0.8,1.4s-1.2,0.4-2.2,0.4h-0.9v8.8c0,0.8,0,1.3,0.1,1.7s0.2,0.7,0.4,1s0.6,0.4,1.1,0.4c0.3,0,0.7,0,1.1-0.1
		s0.9-0.1,1.1-0.1c0.4,0,0.7,0.2,1,0.5s0.5,0.7,0.5,1.2c0,0.8-0.4,1.4-1.3,1.8s-2.1,0.6-3.6,0.6c-1.5,0-2.6-0.3-3.4-0.8
		s-1.3-1.2-1.5-2.1s-0.4-2.1-0.4-3.6V51h-0.6c-0.7,0-1.2-0.2-1.6-0.5s-0.5-0.7-0.5-1.2s0.2-0.9,0.6-1.2S175.3,47.6,176,47.6z"/>
	<path class="st1" d="M193,67.3l0.4-1.1l-5.9-14.9c-0.4-0.9-0.5-1.5-0.5-1.9c0-0.4,0.1-0.8,0.3-1.1s0.5-0.6,0.9-0.8s0.8-0.3,1.2-0.3
		c0.7,0,1.2,0.2,1.6,0.7s0.7,1.1,0.9,1.9l4.1,11.8l3.8-11c0.3-0.9,0.6-1.6,0.8-2.1s0.5-0.8,0.8-1s0.7-0.3,1.2-0.3
		c0.4,0,0.7,0.1,1,0.3s0.6,0.5,0.8,0.8s0.3,0.7,0.3,1c0,0.2-0.1,0.5-0.2,0.9s-0.2,0.8-0.4,1.2l-6.3,16.4c-0.5,1.4-1.1,2.6-1.6,3.4
		s-1.2,1.5-2,1.9s-2,0.7-3.4,0.7c-1.4,0-2.5-0.2-3.2-0.5s-1.1-0.9-1.1-1.7c0-0.6,0.2-1,0.5-1.3s0.8-0.4,1.5-0.4c0.3,0,0.5,0,0.8,0.1
		c0.3,0.1,0.6,0.1,0.8,0.1c0.6,0,1-0.1,1.3-0.2s0.6-0.4,0.9-0.9S192.6,68,193,67.3z"/>
</g>
<path class="st0" d="M75.7,21H18.3c-4,0-7.3-3.3-7.3-7.3v-0.5c0-4,3.3-7.3,7.3-7.3h57.5c4,0,7.3,3.3,7.3,7.3v0.5
	C83,17.7,79.7,21,75.7,21z"/>
</svg>
