<?xml version="1.0" encoding="utf-8"?>
<!-- Generator: Adobe Illustrator 22.1.0, SVG Export Plug-In . SVG Version: 6.00 Build 0)  -->
<svg version="1.1" id="Layer_1" xmlns="http://www.w3.org/2000/svg" xmlns:xlink="http://www.w3.org/1999/xlink" x="0px" y="0px"
	 viewBox="0 0 240 80" style="enable-background:new 0 0 240 80;" xml:space="preserve">
<style type="text/css">
	.st0{fill:#FFFFFF;}
	.st1{fill:#FF9C42;}
</style>
<g>
	<path class="st0" d="M83.6,57.6h-9.4c0,1.1,0.2,2.1,0.7,2.9s1,1.5,1.7,1.9s1.5,0.6,2.3,0.6c0.6,0,1.1-0.1,1.6-0.2s0.9-0.3,1.4-0.6
		s0.9-0.6,1.2-0.9s0.9-0.8,1.5-1.3c0.2-0.2,0.6-0.3,1.1-0.3s0.9,0.1,1.2,0.4s0.5,0.7,0.5,1.1c0,0.4-0.2,0.9-0.5,1.5
		s-0.9,1.1-1.5,1.7c-0.6,0.6-1.5,1-2.6,1.3s-2.2,0.5-3.6,0.5c-3.1,0-5.5-0.9-7.2-2.6c-1.7-1.7-2.7-4.2-2.7-7.2
		c0-1.4,0.2-2.7,0.6-3.9c0.4-1.2,1-2.3,1.8-3.1c0.8-0.8,1.8-1.5,3-2s2.5-0.7,3.9-0.7c1.9,0,3.5,0.4,4.8,1.2s2.3,1.8,3,3.1
		s1,2.5,1,3.8c0,1.2-0.3,2-1,2.3S84.9,57.6,83.6,57.6z M74.2,54.9h8.7c-0.1-1.6-0.6-2.9-1.3-3.7s-1.8-1.2-3-1.2s-2.2,0.4-2.9,1.2
		S74.4,53.2,74.2,54.9z"/>
	<path class="st0" d="M108.8,60.2c0,0.6-0.2,1.2-0.5,1.9s-0.9,1.3-1.6,1.9c-0.7,0.6-1.7,1.1-2.8,1.5s-2.4,0.6-3.8,0.6
		c-3,0-5.3-0.9-6.9-2.6c-1.6-1.7-2.5-4-2.5-7c0-2,0.4-3.7,1.1-5.2s1.9-2.7,3.3-3.5s3.2-1.2,5.2-1.2c1.2,0,2.4,0.2,3.4,0.5
		s1.9,0.8,2.6,1.4s1.3,1.2,1.7,1.8s0.6,1.3,0.6,1.8c0,0.6-0.2,1.1-0.6,1.5s-0.9,0.6-1.6,0.6c-0.4,0-0.7-0.1-1-0.3s-0.6-0.5-0.9-1
		c-0.6-0.9-1.2-1.6-1.8-2s-1.5-0.7-2.4-0.7c-1.4,0-2.6,0.6-3.4,1.7s-1.3,2.6-1.3,4.5c0,0.9,0.1,1.7,0.3,2.5s0.5,1.4,1,1.9
		s0.9,0.9,1.5,1.2s1.3,0.4,2,0.4c1,0,1.8-0.2,2.5-0.7s1.3-1.1,1.8-2c0.3-0.5,0.6-1,0.9-1.3s0.8-0.5,1.2-0.5c0.6,0,1.1,0.2,1.5,0.7
		S108.8,59.7,108.8,60.2z"/>
	<path class="st0" d="M116.8,42.4v7.1c0.6-0.7,1.2-1.3,1.8-1.7s1.2-0.7,1.9-0.9s1.5-0.3,2.3-0.3c1.2,0,2.3,0.3,3.2,0.8
		s1.7,1.3,2.2,2.3c0.3,0.6,0.6,1.2,0.7,1.9c0.1,0.7,0.2,1.5,0.2,2.5v9.2c0,1-0.2,1.7-0.7,2.2s-1,0.7-1.7,0.7c-1.6,0-2.4-1-2.4-2.9
		v-8.1c0-1.5-0.2-2.7-0.7-3.5s-1.3-1.2-2.6-1.2c-0.9,0-1.6,0.2-2.3,0.7s-1.2,1.2-1.5,2c-0.3,0.7-0.4,2-0.4,3.8v6.3
		c0,0.9-0.2,1.7-0.6,2.2s-1,0.7-1.8,0.7c-1.6,0-2.4-1-2.4-2.9V42.4c0-1,0.2-1.7,0.6-2.2s1-0.7,1.7-0.7c0.8,0,1.4,0.2,1.8,0.7
		S116.8,41.5,116.8,42.4z"/>
	<path class="st1" d="M131.5,46.1h1.1v-1.6c0-1.6,0.2-2.9,0.6-3.8c0.4-0.9,1-1.7,2-2.1c0.9-0.4,2.2-0.7,3.8-0.7
		c2.9,0,4.3,0.7,4.3,2.2c0,0.5-0.2,0.9-0.5,1.2c-0.3,0.4-0.7,0.5-1,0.5c-0.2,0-0.5-0.1-1-0.1c-0.5-0.1-0.9-0.1-1.2-0.1
		c-0.9,0-1.5,0.3-1.7,0.8s-0.4,1.4-0.4,2.3v1.2h1.2c1.9,0,2.8,0.6,2.8,1.8c0,0.8-0.3,1.4-0.7,1.6c-0.5,0.3-1.2,0.4-2,0.4h-1.2v13.6
		c0,1-0.2,1.8-0.7,2.3c-0.5,0.5-1,0.8-1.8,0.8c-0.7,0-1.2-0.3-1.7-0.8c-0.5-0.5-0.7-1.3-0.7-2.3V49.7h-1.4c-0.7,0-1.3-0.2-1.7-0.5
		c-0.4-0.4-0.6-0.8-0.6-1.4C129,46.7,129.9,46.1,131.5,46.1z"/>
	<path class="st0" d="M147.3,44.4c-0.7,0-1.2-0.2-1.7-0.6s-0.7-1-0.7-1.7s0.2-1.2,0.7-1.7s1.1-0.7,1.7-0.7c0.6,0,1.2,0.2,1.7,0.6
		s0.7,1,0.7,1.7s-0.2,1.3-0.7,1.7S147.9,44.4,147.3,44.4z M149.6,49.4v13.9c0,1-0.2,1.7-0.7,2.2s-1,0.7-1.7,0.7s-1.3-0.3-1.7-0.8
		s-0.7-1.2-0.7-2.2V49.5c0-0.9,0.2-1.7,0.7-2.1s1-0.7,1.7-0.7s1.3,0.2,1.7,0.7S149.6,48.5,149.6,49.4z"/>
	<path class="st0" d="M158.9,49.3v0.6c0.8-1.1,1.8-1.9,2.8-2.5s2.2-0.8,3.5-0.8s2.4,0.3,3.4,0.8s1.7,1.3,2.2,2.3
		c0.3,0.6,0.5,1.2,0.6,1.9s0.1,1.5,0.1,2.6v8.9c0,1-0.2,1.7-0.7,2.2s-1,0.7-1.7,0.7s-1.3-0.3-1.7-0.8s-0.7-1.2-0.7-2.2v-8
		c0-1.6-0.2-2.8-0.7-3.6s-1.3-1.3-2.6-1.3c-0.9,0-1.6,0.3-2.3,0.8s-1.2,1.2-1.5,2.1c-0.2,0.7-0.4,2.1-0.4,4v6c0,1-0.2,1.7-0.7,2.2
		s-1,0.7-1.7,0.7s-1.3-0.3-1.7-0.8s-0.7-1.2-0.7-2.2V49.4c0-0.9,0.2-1.6,0.6-2s0.9-0.7,1.6-0.7c0.4,0,0.8,0.1,1.1,0.3
		s0.6,0.5,0.8,0.9S158.9,48.7,158.9,49.3z"/>
	<path class="st0" d="M178.8,44.4c-0.7,0-1.2-0.2-1.7-0.6s-0.7-1-0.7-1.7s0.2-1.2,0.7-1.7s1.1-0.7,1.7-0.7c0.6,0,1.2,0.2,1.7,0.6
		s0.7,1,0.7,1.7s-0.2,1.3-0.7,1.7S179.4,44.4,178.8,44.4z M181.1,49.4v13.9c0,1-0.2,1.7-0.7,2.2s-1,0.7-1.7,0.7s-1.3-0.3-1.7-0.8
		s-0.7-1.2-0.7-2.2V49.5c0-0.9,0.2-1.7,0.7-2.1s1-0.7,1.7-0.7s1.3,0.2,1.7,0.7S181.1,48.5,181.1,49.4z"/>
	<path class="st0" d="M186.3,47.1h0.5v-2.9c0-0.8,0-1.4,0.1-1.8s0.2-0.8,0.3-1.1c0.2-0.3,0.5-0.6,0.8-0.8s0.7-0.3,1.2-0.3
		c0.6,0,1.2,0.2,1.7,0.7c0.3,0.3,0.5,0.7,0.6,1.1s0.1,1.1,0.1,1.9v3.3h1.8c0.7,0,1.2,0.2,1.6,0.5s0.5,0.7,0.5,1.2
		c0,0.6-0.3,1.1-0.8,1.4s-1.2,0.4-2.2,0.4h-0.9v8.8c0,0.8,0,1.3,0.1,1.7s0.2,0.7,0.4,1s0.6,0.4,1.1,0.4c0.3,0,0.7,0,1.1-0.1
		s0.9-0.1,1.1-0.1c0.4,0,0.7,0.2,1,0.5s0.5,0.7,0.5,1.2c0,0.8-0.4,1.4-1.3,1.8s-2.1,0.6-3.6,0.6s-2.6-0.3-3.4-0.8s-1.3-1.2-1.5-2.1
		c-0.2-0.9-0.4-2.1-0.4-3.6v-9.5h-0.6c-0.7,0-1.2-0.2-1.6-0.5s-0.5-0.7-0.5-1.2s0.2-0.9,0.6-1.2S185.6,47.1,186.3,47.1z"/>
	<path class="st0" d="M203.3,66.8l0.4-1.1l-5.9-14.9c-0.4-0.9-0.5-1.5-0.5-1.9s0.1-0.8,0.3-1.1s0.5-0.6,0.9-0.8s0.8-0.3,1.2-0.3
		c0.7,0,1.2,0.2,1.6,0.7s0.7,1.1,0.9,1.9l4.1,11.8l3.8-11c0.3-0.9,0.6-1.6,0.8-2.1s0.5-0.8,0.8-1s0.7-0.3,1.2-0.3
		c0.4,0,0.7,0.1,1,0.3s0.6,0.5,0.8,0.8s0.3,0.7,0.3,1c0,0.2-0.1,0.5-0.2,0.9s-0.2,0.8-0.4,1.2l-6.3,16.4c-0.5,1.4-1.1,2.6-1.6,3.4
		s-1.2,1.5-2,1.9s-2,0.7-3.4,0.7s-2.5-0.2-3.2-0.5s-1.1-0.9-1.1-1.7c0-0.6,0.2-1,0.5-1.3s0.8-0.4,1.5-0.4c0.3,0,0.5,0,0.8,0.1
		s0.6,0.1,0.8,0.1c0.6,0,1-0.1,1.3-0.2s0.6-0.4,0.9-0.9S202.9,67.5,203.3,66.8z"/>
</g>
<path class="st1" d="M100.1,22.1H12.7c-4.8,0-8.7,3.9-8.7,8.7s3.9,8.7,8.7,8.7h34.1v19.8c0,5,4.1,9.2,9.2,9.2h2.3
	c5,0,9.2-4.1,9.2-9.2V39.5h32.7c4.8,0,8.7-3.9,8.7-8.7S104.9,22.1,100.1,22.1z"/>
</svg>
