<?xml version="1.0" encoding="utf-8"?>
<!-- Generator: Adobe Illustrator 22.1.0, SVG Export Plug-In . SVG Version: 6.00 Build 0)  -->
<svg version="1.1" id="Layer_1" xmlns="http://www.w3.org/2000/svg" xmlns:xlink="http://www.w3.org/1999/xlink" x="0px" y="0px"
	 viewBox="0 0 240 140" style="enable-background:new 0 0 240 140;" xml:space="preserve">
<style type="text/css">
	.st0{fill:#FF9C42;}
	.st1{fill:#FFFFFF;}
</style>
<g>
	<path class="st0" d="M47.8,39.1H33.6v37.4c0,2.2-0.6,3.8-1.8,4.8c-1.2,1-2.7,1.6-4.6,1.6c-1.9,0-3.5-0.5-4.7-1.6
		c-1.2-1.1-1.8-2.6-1.8-4.8V39.1H6.6c-2.2,0-3.9-0.4-4.9-1.2C0.5,37.1,0,36.1,0,34.8c0-1.3,0.6-2.4,1.7-3.2c1.1-0.8,2.7-1.2,4.9-1.2
		h41.2c2.2,0,3.9,0.4,5,1.2c1.1,0.8,1.6,1.8,1.6,3.1c0,1.3-0.6,2.3-1.7,3.1C51.7,38.7,50,39.1,47.8,39.1z"/>
	<path class="st1" d="M55.8,72.1H43.2c0,1.5,0.3,2.7,0.9,3.8s1.3,1.9,2.3,2.5s2,0.8,3.1,0.8c0.8,0,1.5-0.1,2.1-0.3s1.2-0.5,1.8-0.8
		s1.1-0.8,1.6-1.2s1.1-1,1.9-1.8c0.3-0.3,0.8-0.4,1.4-0.4c0.7,0,1.2,0.2,1.6,0.5s0.6,0.9,0.6,1.5c0,0.6-0.2,1.3-0.7,2
		s-1.1,1.5-2.1,2.2s-2.1,1.3-3.4,1.8s-3,0.7-4.8,0.7c-4.1,0-7.3-1.2-9.6-3.5s-3.4-5.5-3.4-9.5c0-1.9,0.3-3.6,0.8-5.3s1.4-3,2.5-4.2
		s2.4-2,4-2.7s3.3-0.9,5.3-0.9c2.5,0,4.6,0.5,6.4,1.6s3.1,2.4,4,4.1s1.3,3.4,1.3,5.1c0,1.6-0.5,2.7-1.4,3.1S57.4,72.1,55.8,72.1z
		 M43.2,68.5h11.6c-0.2-2.2-0.7-3.8-1.8-4.9S50.7,62,49,62c-1.6,0-2.9,0.6-3.9,1.7S43.5,66.4,43.2,68.5z"/>
	<path class="st1" d="M88.2,75.7c0,0.8-0.2,1.6-0.7,2.6s-1.2,1.8-2.2,2.6s-2.2,1.5-3.7,2s-3.2,0.8-5,0.8c-4,0-7-1.2-9.3-3.5
		S64,74.7,64,70.8c0-2.6,0.5-4.9,1.5-7s2.5-3.6,4.4-4.7s4.2-1.7,6.9-1.7c1.7,0,3.2,0.2,4.6,0.7s2.6,1.1,3.5,1.9s1.7,1.6,2.2,2.4
		s0.8,1.7,0.8,2.4c0,0.8-0.3,1.4-0.9,1.9s-1.3,0.8-2.1,0.8c-0.5,0-1-0.1-1.3-0.4s-0.7-0.7-1.2-1.3c-0.8-1.2-1.6-2.1-2.4-2.7
		s-1.9-0.9-3.2-0.9c-1.9,0-3.4,0.7-4.6,2.2c-1.2,1.5-1.7,3.5-1.7,6.1c0,1.2,0.1,2.3,0.4,3.3s0.7,1.9,1.3,2.6c0.6,0.7,1.2,1.3,2,1.6
		s1.7,0.6,2.6,0.6c1.3,0,2.4-0.3,3.3-0.9s1.7-1.5,2.4-2.7c0.4-0.7,0.8-1.3,1.3-1.7s1-0.6,1.7-0.6c0.8,0,1.4,0.3,1.9,0.9
		S88.2,75,88.2,75.7z"/>
	<path class="st1" d="M97.6,51.9v9.5c0.8-0.9,1.6-1.7,2.4-2.2s1.6-1,2.6-1.2s1.9-0.4,3-0.4c1.6,0,3.1,0.3,4.3,1s2.2,1.7,3,3
		c0.5,0.8,0.8,1.6,0.9,2.6s0.2,2,0.2,3.3v12.3c0,1.3-0.3,2.3-0.9,2.9s-1.4,1-2.3,1c-2.1,0-3.2-1.3-3.2-3.9V68.9c0-2-0.3-3.6-0.9-4.7
		s-1.8-1.7-3.5-1.7c-1.1,0-2.2,0.3-3.1,1s-1.6,1.5-2.1,2.7c-0.3,1-0.5,2.6-0.5,5.1v8.5c0,1.3-0.3,2.2-0.9,2.9s-1.4,1-2.4,1
		c-2.1,0-3.2-1.3-3.2-3.9V51.9c0-1.3,0.3-2.3,0.8-2.9s1.3-1,2.3-1c1,0,1.8,0.3,2.4,1S97.6,50.7,97.6,51.9z"/>
	<path class="st0" d="M118.6,53.1h1.5v-2.3c0-2.4,0.3-4.3,0.8-5.7s1.4-2.4,2.6-3.1s2.9-1,5-1c3.7,0,5.6,1.1,5.6,3.3
		c0,0.7-0.2,1.3-0.6,1.8s-0.9,0.8-1.4,0.8c-0.3,0-0.7-0.1-1.3-0.2c-0.6-0.1-1.1-0.2-1.5-0.2c-1.2,0-1.9,0.4-2.2,1.2s-0.5,2-0.5,3.5
		v1.8h1.6c2.4,0,3.7,0.9,3.7,2.6c0,1.3-0.3,2.1-1,2.4c-0.6,0.3-1.5,0.5-2.7,0.5h-1.6v20.3c0,1.5-0.3,2.7-0.9,3.5
		c-0.6,0.8-1.4,1.2-2.3,1.2c-0.9,0-1.7-0.4-2.3-1.2c-0.6-0.8-0.9-2-0.9-3.5V58.6h-1.8c-1,0-1.7-0.3-2.2-0.8c-0.5-0.5-0.8-1.2-0.8-2
		C115.4,54,116.5,53.1,118.6,53.1z"/>
	<path class="st1" d="M137.8,54.6c-0.9,0-1.7-0.3-2.3-0.8s-0.9-1.3-0.9-2.3c0-0.9,0.3-1.7,1-2.2s1.4-0.9,2.3-0.9
		c0.8,0,1.6,0.3,2.2,0.8s1,1.3,1,2.3c0,1-0.3,1.8-0.9,2.3S138.6,54.6,137.8,54.6z M140.9,61.2v18.5c0,1.3-0.3,2.3-0.9,2.9
		s-1.4,1-2.3,1s-1.7-0.3-2.3-1s-0.9-1.6-0.9-2.9V61.4c0-1.3,0.3-2.2,0.9-2.9s1.3-1,2.3-1s1.7,0.3,2.3,1S140.9,60.1,140.9,61.2z"/>
	<path class="st1" d="M152.1,61.1v0.8c1.1-1.5,2.4-2.6,3.7-3.3s2.9-1,4.6-1c1.7,0,3.2,0.4,4.5,1.1s2.3,1.8,3,3.1
		c0.4,0.8,0.7,1.6,0.8,2.5s0.2,2.1,0.2,3.5v11.9c0,1.3-0.3,2.3-0.9,2.9s-1.3,1-2.3,1c-1,0-1.7-0.3-2.3-1s-0.9-1.6-0.9-2.9V69
		c0-2.1-0.3-3.7-0.9-4.8s-1.8-1.7-3.5-1.7c-1.1,0-2.2,0.3-3.1,1s-1.6,1.6-2.1,2.8c-0.3,1-0.5,2.7-0.5,5.3v8c0,1.3-0.3,2.3-0.9,2.9
		s-1.4,1-2.3,1c-0.9,0-1.7-0.3-2.3-1s-0.9-1.6-0.9-2.9V61.2c0-1.2,0.3-2.1,0.8-2.7s1.3-0.9,2.2-0.9c0.6,0,1.1,0.1,1.5,0.4
		s0.8,0.7,1.1,1.2S152.1,60.3,152.1,61.1z"/>
	<path class="st1" d="M177.4,54.6c-0.9,0-1.7-0.3-2.3-0.8s-0.9-1.3-0.9-2.3c0-0.9,0.3-1.7,1-2.2s1.4-0.9,2.3-0.9
		c0.8,0,1.6,0.3,2.2,0.8s1,1.3,1,2.3c0,1-0.3,1.8-0.9,2.3S178.2,54.6,177.4,54.6z M180.5,61.2v18.5c0,1.3-0.3,2.3-0.9,2.9
		s-1.4,1-2.3,1s-1.7-0.3-2.3-1s-0.9-1.6-0.9-2.9V61.4c0-1.3,0.3-2.2,0.9-2.9s1.3-1,2.3-1s1.7,0.3,2.3,1S180.5,60.1,180.5,61.2z"/>
	<path class="st1" d="M186.3,58.1h0.7v-3.8c0-1,0-1.8,0.1-2.4s0.2-1.1,0.5-1.5c0.3-0.4,0.6-0.8,1.1-1.1s1-0.4,1.6-0.4
		c0.8,0,1.5,0.3,2.2,0.9c0.4,0.4,0.7,0.9,0.8,1.5s0.2,1.4,0.2,2.5v4.4h2.3c0.9,0,1.6,0.2,2.1,0.6s0.7,1,0.7,1.7c0,0.9-0.3,1.5-1,1.8
		s-1.7,0.5-2.9,0.5h-1.2v11.8c0,1,0,1.8,0.1,2.3s0.3,1,0.6,1.3s0.8,0.5,1.5,0.5c0.4,0,0.9-0.1,1.5-0.2s1.1-0.2,1.5-0.2
		c0.5,0,1,0.2,1.4,0.6s0.6,0.9,0.6,1.5c0,1-0.6,1.8-1.7,2.4s-2.7,0.8-4.9,0.8c-2,0-3.5-0.3-4.5-1s-1.7-1.6-2-2.8S187,77,187,75V62.8
		h-0.8c-0.9,0-1.6-0.2-2.1-0.7s-0.7-1-0.7-1.7s0.3-1.2,0.8-1.7S185.3,58.1,186.3,58.1z"/>
	<path class="st1" d="M207.6,84.4l0.6-1.4l-7.9-19.8c-0.5-1.1-0.7-2-0.7-2.5c0-0.5,0.1-1.1,0.4-1.5s0.7-0.8,1.2-1.1s1-0.4,1.5-0.4
		c0.9,0,1.6,0.3,2.1,0.9s0.9,1.4,1.2,2.5l5.4,15.8l5.1-14.6c0.4-1.2,0.8-2.1,1.1-2.8s0.7-1.1,1-1.4s0.9-0.4,1.6-0.4
		c0.5,0,0.9,0.1,1.4,0.4s0.8,0.6,1,1s0.4,0.9,0.4,1.4c-0.1,0.3-0.2,0.7-0.3,1.3s-0.3,1.1-0.5,1.7l-8.3,21.8
		c-0.7,1.9-1.4,3.4-2.1,4.5s-1.6,1.9-2.7,2.5s-2.7,0.9-4.6,0.9c-1.9,0-3.3-0.2-4.2-0.6s-1.4-1.1-1.4-2.2c0-0.7,0.2-1.3,0.7-1.7
		s1.1-0.6,2-0.6c0.3,0,0.7,0,1,0.1c0.4,0.1,0.8,0.1,1.1,0.1c0.7,0,1.3-0.1,1.7-0.3s0.8-0.6,1.1-1.1S207.2,85.4,207.6,84.4z"/>
</g>
</svg>
