<?xml version="1.0" encoding="utf-8"?>
<!-- Generator: Adobe Illustrator 22.1.0, SVG Export Plug-In . SVG Version: 6.00 Build 0)  -->
<svg version="1.1" id="Layer_1" xmlns="http://www.w3.org/2000/svg" xmlns:xlink="http://www.w3.org/1999/xlink" x="0px" y="0px"
	 viewBox="0 0 240 70" style="enable-background:new 0 0 240 70;" xml:space="preserve">
<style type="text/css">
	.st0{fill:#FF9C42;stroke:#FF9C42;stroke-miterlimit:10;}
	.st1{fill:#FFFFFF;}
	.st2{fill:#FF9C42;}
</style>
<g>
	<path class="st0" d="M37,13.4H26.3v36.5c0,2.1-0.5,3.7-1.3,4.7c-0.9,1-2.1,1.5-3.5,1.5c-1.4,0-2.6-0.5-3.5-1.5
		c-0.9-1-1.4-2.6-1.4-4.7V13.4H5.9c-1.7,0-2.9-0.4-3.7-1.1C1.4,11.5,1,10.5,1,9.2c0-1.3,0.4-2.3,1.3-3.1S4.3,5,5.9,5H37
		c1.7,0,2.9,0.4,3.8,1.2C41.6,6.9,42,8,42,9.2c0,1.3-0.4,2.3-1.3,3C39.9,13,38.7,13.4,37,13.4z"/>
	<path class="st1" d="M49.3,44.1H35.2c0,1.6,0.3,3.1,1,4.3c0.6,1.3,1.5,2.2,2.6,2.8c1.1,0.6,2.2,1,3.5,1c0.9,0,1.7-0.1,2.4-0.3
		s1.4-0.5,2.1-1c0.7-0.4,1.3-0.9,1.9-1.4c0.6-0.5,1.3-1.2,2.2-2c0.4-0.3,0.9-0.5,1.6-0.5c0.7,0,1.3,0.2,1.8,0.6
		c0.5,0.4,0.7,1,0.7,1.7c0,0.7-0.3,1.4-0.8,2.3s-1.3,1.7-2.3,2.5c-1,0.8-2.3,1.5-3.9,2c-1.6,0.5-3.4,0.8-5.4,0.8
		c-4.6,0-8.3-1.3-10.8-4c-2.6-2.7-3.9-6.2-3.9-10.8c0-2.1,0.3-4.1,1-6c0.6-1.8,1.6-3.4,2.8-4.7c1.2-1.3,2.7-2.3,4.5-3
		c1.8-0.7,3.8-1,5.9-1c2.8,0,5.3,0.6,7.3,1.8c2,1.2,3.5,2.7,4.5,4.6c1,1.9,1.5,3.8,1.5,5.8c0,1.8-0.5,3-1.6,3.5
		C52.7,43.8,51.2,44.1,49.3,44.1z M35.2,40h13.1c-0.2-2.5-0.8-4.3-2-5.6c-1.2-1.2-2.7-1.8-4.6-1.8c-1.8,0-3.3,0.6-4.4,1.9
		C36.1,35.7,35.4,37.5,35.2,40z"/>
	<path class="st1" d="M86,48c0,0.9-0.3,1.9-0.8,2.9s-1.4,2-2.5,2.9c-1.1,0.9-2.5,1.7-4.2,2.2C76.9,56.7,75,57,72.9,57
		c-4.5,0-8-1.3-10.5-3.9c-2.5-2.6-3.8-6.1-3.8-10.5c0-3,0.6-5.6,1.7-7.9c1.1-2.3,2.8-4,5-5.3c2.2-1.2,4.8-1.9,7.8-1.9
		c1.9,0,3.6,0.3,5.2,0.8c1.6,0.5,2.9,1.3,4,2.1c1.1,0.9,1.9,1.8,2.5,2.8c0.6,1,0.9,1.9,0.9,2.7c0,0.9-0.3,1.6-1,2.2
		c-0.6,0.6-1.4,0.9-2.3,0.9c-0.6,0-1.1-0.2-1.5-0.5c-0.4-0.3-0.8-0.8-1.3-1.5c-0.9-1.3-1.8-2.4-2.8-3c-1-0.7-2.2-1-3.7-1
		c-2.1,0-3.9,0.8-5.2,2.5c-1.3,1.7-2,4-2,6.9c0,1.4,0.2,2.6,0.5,3.8c0.3,1.1,0.8,2.1,1.5,2.9c0.6,0.8,1.4,1.4,2.3,1.8
		c0.9,0.4,1.9,0.6,3,0.6c1.4,0,2.7-0.3,3.7-1s1.9-1.7,2.7-3.1c0.4-0.8,0.9-1.4,1.4-1.9s1.1-0.7,1.9-0.7c0.9,0,1.6,0.3,2.2,1
		C85.7,46.6,86,47.3,86,48z"/>
	<path class="st1" d="M96.7,21.2V32c0.9-1.1,1.8-1.9,2.7-2.5c0.9-0.6,1.8-1.1,2.9-1.4c1.1-0.3,2.2-0.5,3.4-0.5
		c1.8,0,3.5,0.4,4.9,1.2s2.5,1.9,3.4,3.4c0.5,0.9,0.9,1.8,1,2.9c0.2,1.1,0.3,2.3,0.3,3.7v13.9c0,1.5-0.3,2.5-1,3.3
		c-0.7,0.7-1.5,1.1-2.6,1.1c-2.4,0-3.6-1.5-3.6-4.4V40.4c0-2.3-0.3-4.1-1-5.3s-2-1.9-3.9-1.9c-1.3,0-2.5,0.4-3.5,1.1
		c-1,0.7-1.8,1.7-2.3,3c-0.4,1.1-0.6,3-0.6,5.8v9.6c0,1.4-0.3,2.5-1,3.3S94.2,57,93,57c-2.4,0-3.6-1.5-3.6-4.4V21.2
		c0-1.5,0.3-2.6,0.9-3.3c0.6-0.7,1.5-1.1,2.6-1.1c1.1,0,2,0.4,2.7,1.1C96.4,18.7,96.7,19.8,96.7,21.2z"/>
	<path class="st2" d="M120.5,22.6h1.7V20c0-2.7,0.3-4.9,0.9-6.4c0.6-1.6,1.5-2.8,2.9-3.5c1.4-0.7,3.2-1.1,5.6-1.1
		c4.2,0,6.3,1.2,6.3,3.7c0,0.8-0.2,1.5-0.7,2.1c-0.4,0.6-1,0.9-1.6,0.9c-0.3,0-0.8-0.1-1.5-0.2c-0.7-0.1-1.3-0.2-1.8-0.2
		c-1.3,0-2.1,0.5-2.5,1.4s-0.6,2.2-0.6,3.9v2.1h1.8c2.8,0,4.1,1,4.1,3c0,1.4-0.4,2.3-1.1,2.7c-0.7,0.4-1.7,0.6-3,0.6h-1.8v22.9
		c0,1.7-0.3,3-1,3.9c-0.7,0.9-1.6,1.3-2.6,1.3c-1,0-1.9-0.4-2.6-1.3c-0.7-0.9-1-2.2-1-3.9V28.9h-2c-1.1,0-1.9-0.3-2.5-0.9
		c-0.6-0.6-0.9-1.3-0.9-2.3C116.8,23.7,118,22.6,120.5,22.6z"/>
	<path class="st1" d="M142.1,24.2c-1,0-1.9-0.3-2.6-0.9c-0.7-0.6-1.1-1.5-1.1-2.6c0-1,0.4-1.9,1.1-2.5c0.7-0.7,1.6-1,2.6-1
		c0.9,0,1.8,0.3,2.5,0.9s1.1,1.5,1.1,2.6c0,1.1-0.4,2-1.1,2.6C143.9,23.9,143.1,24.2,142.1,24.2z M145.7,31.7v20.9
		c0,1.5-0.3,2.5-1,3.3c-0.7,0.7-1.6,1.1-2.6,1.1s-1.9-0.4-2.6-1.1s-1-1.8-1-3.3V31.9c0-1.4,0.3-2.5,1-3.2s1.5-1.1,2.6-1.1
		s1.9,0.4,2.6,1.1S145.7,30.4,145.7,31.7z"/>
	<path class="st1" d="M158.4,31.6v0.9c1.3-1.7,2.7-2.9,4.2-3.7c1.5-0.8,3.2-1.2,5.2-1.2c1.9,0,3.6,0.4,5.1,1.2
		c1.5,0.8,2.6,2,3.4,3.5c0.5,0.9,0.8,1.8,0.9,2.9c0.1,1,0.2,2.3,0.2,3.9v13.5c0,1.5-0.3,2.5-1,3.3c-0.7,0.7-1.5,1.1-2.6,1.1
		c-1.1,0-2-0.4-2.6-1.1s-1-1.8-1-3.3V40.5c0-2.4-0.3-4.2-1-5.5c-0.7-1.3-2-1.9-4-1.9c-1.3,0-2.5,0.4-3.5,1.2s-1.8,1.8-2.3,3.2
		c-0.4,1.1-0.5,3.1-0.5,6v9.1c0,1.5-0.3,2.6-1,3.3s-1.6,1.1-2.6,1.1c-1,0-1.9-0.4-2.6-1.1s-1-1.8-1-3.3V31.7c0-1.4,0.3-2.4,0.9-3.1
		c0.6-0.7,1.4-1,2.5-1c0.6,0,1.2,0.2,1.7,0.5c0.5,0.3,0.9,0.8,1.2,1.4C158.2,30,158.4,30.7,158.4,31.6z"/>
	<path class="st1" d="M186.9,24.2c-1,0-1.9-0.3-2.6-0.9c-0.7-0.6-1.1-1.5-1.1-2.6c0-1,0.4-1.9,1.1-2.5c0.7-0.7,1.6-1,2.6-1
		c0.9,0,1.8,0.3,2.5,0.9s1.1,1.5,1.1,2.6c0,1.1-0.4,2-1.1,2.6C188.7,23.9,187.9,24.2,186.9,24.2z M190.5,31.7v20.9
		c0,1.5-0.3,2.5-1,3.3c-0.7,0.7-1.6,1.1-2.6,1.1s-1.9-0.4-2.6-1.1s-1-1.8-1-3.3V31.9c0-1.4,0.3-2.5,1-3.2s1.5-1.1,2.6-1.1
		s1.9,0.4,2.6,1.1S190.5,30.4,190.5,31.7z"/>
	<path class="st1" d="M197,28.2h0.8v-4.3c0-1.2,0-2.1,0.1-2.7c0.1-0.7,0.2-1.2,0.5-1.7c0.3-0.5,0.7-0.9,1.2-1.2s1.1-0.5,1.8-0.5
		c0.9,0,1.8,0.3,2.5,1c0.5,0.5,0.8,1,0.9,1.7c0.1,0.7,0.2,1.6,0.2,2.8v4.9h2.7c1,0,1.8,0.2,2.3,0.7c0.5,0.5,0.8,1.1,0.8,1.9
		c0,1-0.4,1.7-1.2,2c-0.8,0.4-1.9,0.6-3.3,0.6H205v13.3c0,1.1,0,2,0.1,2.6c0.1,0.6,0.3,1.1,0.6,1.5s0.9,0.6,1.7,0.6
		c0.4,0,1-0.1,1.7-0.2c0.7-0.2,1.3-0.2,1.7-0.2c0.6,0,1.1,0.2,1.6,0.7c0.5,0.5,0.7,1,0.7,1.7c0,1.2-0.6,2.1-1.9,2.7
		c-1.3,0.6-3.1,0.9-5.5,0.9c-2.3,0-4-0.4-5.1-1.1s-1.9-1.8-2.3-3.2s-0.5-3.1-0.5-5.4V33.4h-1c-1,0-1.8-0.2-2.4-0.7
		c-0.5-0.5-0.8-1.1-0.8-1.9c0-0.8,0.3-1.4,0.9-1.9C195.1,28.5,195.9,28.2,197,28.2z"/>
	<path class="st1" d="M221.2,57.9l0.7-1.6l-8.9-22.4c-0.5-1.3-0.8-2.2-0.8-2.8c0-0.6,0.2-1.2,0.5-1.7c0.3-0.5,0.8-1,1.3-1.3
		c0.6-0.3,1.1-0.5,1.7-0.5c1,0,1.8,0.3,2.4,1c0.5,0.7,1,1.6,1.4,2.9l6.1,17.8l5.8-16.6c0.5-1.3,0.9-2.4,1.2-3.2
		c0.4-0.8,0.8-1.3,1.2-1.5c0.4-0.3,1-0.4,1.8-0.4c0.5,0,1.1,0.1,1.6,0.4s0.9,0.7,1.2,1.2c0.3,0.5,0.4,1,0.4,1.6
		c-0.1,0.3-0.2,0.8-0.3,1.4c-0.2,0.6-0.4,1.2-0.6,1.9l-9.4,24.7c-0.8,2.2-1.6,3.9-2.4,5.1c-0.8,1.2-1.8,2.2-3.1,2.9
		c-1.3,0.7-3,1-5.2,1c-2.1,0-3.7-0.2-4.8-0.7s-1.6-1.3-1.6-2.5c0-0.8,0.3-1.5,0.8-1.9c0.5-0.5,1.3-0.7,2.2-0.7
		c0.4,0,0.8,0.1,1.1,0.2c0.5,0.1,0.9,0.2,1.2,0.2c0.8,0,1.5-0.1,2-0.4c0.5-0.2,0.9-0.7,1.3-1.3C220.2,60,220.7,59.1,221.2,57.9z"/>
</g>
</svg>
